<?xml version="1.0" encoding="UTF-8" standalone="no"?>
<!-- Uploaded to: SVG Repo, www.svgrepo.com, Generator: SVG Repo Mixer Tools -->
<svg width="800px" height="800px" viewBox="0 0 60 60" version="1.1" xmlns="http://www.w3.org/2000/svg" xmlns:xlink="http://www.w3.org/1999/xlink">
    
    <title>birdhouse</title>
    <desc>Created with Sketch.</desc>
    <defs>
</defs>
    <g id="People" stroke="none" stroke-width="1" fill="none" fill-rule="evenodd">
        <g id="Icon-10" fill="#000000">
            <path d="M34.0315698,40.9917 C34.0315698,40.4397 34.4735698,39.9917 35.0255698,39.9917 L35.0365698,39.9917 C35.5885698,39.9917 36.0365698,40.4397 36.0365698,40.9917 C36.0365698,41.5437 35.5885698,41.9917 35.0365698,41.9917 C34.4835698,41.9917 34.0315698,41.5437 34.0315698,40.9917 L34.0315698,40.9917 Z M38.5905698,33.7037 C38.8665698,32.8307 39.0065698,31.9177 39.0065698,30.9917 C39.0065698,26.0297 34.9685698,21.9917 30.0065698,21.9917 C25.0435698,21.9917 21.0065698,26.0297 21.0065698,30.9917 C21.0065698,33.9857 22.4905698,36.7757 24.9755698,38.4547 C25.4335698,38.7637 25.5535698,39.3857 25.2455698,39.8437 C25.0525698,40.1297 24.7365698,40.2837 24.4155698,40.2837 C24.2225698,40.2837 24.0285698,40.2287 23.8565698,40.1127 C20.8195698,38.0607 19.0065698,34.6517 19.0065698,30.9917 C19.0065698,24.9267 23.9405698,19.9917 30.0065698,19.9917 C36.0715698,19.9917 41.0065698,24.9267 41.0065698,30.9917 C41.0065698,32.1227 40.8345698,33.2387 40.4965698,34.3067 C40.3305698,34.8337 39.7725698,35.1267 39.2415698,34.9587 C38.7155698,34.7917 38.4235698,34.2307 38.5905698,33.7037 L38.5905698,33.7037 Z M31.7615698,39.6467 C31.7755698,39.6307 33.2465698,37.9917 35.0065698,37.9917 C36.6605698,37.9917 38.0065698,39.3377 38.0065698,40.9917 C38.0065698,41.3707 38.2195698,41.7167 38.5585698,41.8867 L38.7695698,41.9917 L38.5585698,42.0967 C38.2195698,42.2667 38.0065698,42.6127 38.0065698,42.9917 L38.0065698,46.9917 C38.0065698,48.6457 36.6605698,49.9917 35.0065698,49.9917 L21.4205698,49.9917 L31.7615698,39.6467 Z M39.0005698,55.9917 C39.5525698,55.9917 40.0005698,55.5437 40.0005698,54.9917 C40.0005698,54.4397 39.5525698,53.9917 39.0005698,53.9917 L32.0065698,53.9917 L32.0065698,51.9917 L35.0065698,51.9917 C37.7625698,51.9917 40.0065698,49.7487 40.0065698,46.9917 L40.0065698,43.6097 L41.4535698,42.8867 C41.7925698,42.7167 42.0065698,42.3707 42.0065698,41.9917 C42.0065698,41.6127 41.7925698,41.2667 41.4535698,41.0967 L39.9655698,40.3537 C39.6505698,37.8967 37.5475698,35.9917 35.0065698,35.9917 C32.3145698,35.9917 30.3335698,38.2407 30.2995698,38.2847 L18.2995698,50.2847 C18.0125698,50.5707 17.9275698,51.0007 18.0825698,51.3747 C18.2365698,51.7477 18.6015698,51.9917 19.0065698,51.9917 L30.0065698,51.9917 L30.0065698,53.9917 L21.0005698,53.9917 C20.4475698,53.9917 20.0005698,54.4397 20.0005698,54.9917 L20.0005698,57.9917 L10.0065698,57.9917 L10.0065698,28.9917 C10.0065698,28.4397 9.55856979,27.9917 9.00656979,27.9917 C8.45356979,27.9917 8.00656979,28.4397 8.00656979,28.9917 L8.00656979,58.9917 C8.00656979,59.5437 8.45356979,59.9917 9.00656979,59.9917 L21.0005698,59.9917 C21.5525698,59.9917 22.0005698,59.5437 22.0005698,58.9917 L22.0005698,55.9917 L39.0005698,55.9917 Z M52.0065698,28.9917 L52.0065698,58.9917 C52.0065698,59.5437 51.5585698,59.9917 51.0065698,59.9917 L25.0005698,59.9917 C24.4475698,59.9917 24.0005698,59.5437 24.0005698,58.9917 C24.0005698,58.4397 24.4475698,57.9917 25.0005698,57.9917 L50.0065698,57.9917 L50.0065698,28.9917 C50.0065698,28.4397 50.4535698,27.9917 51.0065698,27.9917 C51.5585698,27.9917 52.0065698,28.4397 52.0065698,28.9917 L52.0065698,28.9917 Z M57.6445698,27.6367 C57.2635698,28.0177 56.9855698,28.0087 56.8965698,28.0047 C56.4155698,27.9857 55.9055698,27.5127 55.7695698,27.3527 C55.7365698,27.3127 55.7005698,27.2757 55.6605698,27.2417 L30.6605698,5.2417 C30.4695698,5.0727 30.2495698,5.0007 29.9975698,4.9917 C29.7895698,5.0127 29.5245698,5.0727 29.3335698,5.2417 L4.34356979,27.2417 C4.30356979,27.2757 4.26756979,27.3127 4.23456979,27.3527 C4.13256979,27.4767 3.60956979,27.9817 3.11456979,28.0047 C3.02156979,28.0087 2.74556979,28.0197 2.36156979,27.6367 C1.98756979,27.2627 1.99756979,26.9887 2.00056979,26.8987 C2.01656979,26.4127 2.49156979,25.8947 2.65756979,25.7507 L29.9975698,2.3057 L57.3495698,25.7517 C57.5145698,25.8947 57.9895698,26.4127 58.0065698,26.8987 C58.0095698,26.9887 58.0185698,27.2627 57.6445698,27.6367 L57.6445698,27.6367 Z M60.0045698,26.8087 C59.9435698,25.3637 58.7775698,24.3397 58.6505698,24.2327 L30.6505698,0.2327 C30.2895698,-0.0783 29.7065698,-0.0773 29.3435698,0.2327 L1.36056979,24.2277 C1.22856979,24.3397 0.0625697882,25.3637 0.0025697882,26.8087 C-0.0224302118,27.3767 0.123569788,28.2257 0.947569788,29.0497 C1.72256979,29.8257 2.51656979,30.0047 3.08256979,30.0047 C3.12556979,30.0047 3.16656979,30.0037 3.20656979,30.0017 C4.50756979,29.9427 5.45756979,28.9857 5.71456979,28.6987 L29.9975698,7.3217 L54.2905698,28.6987 C54.5475698,28.9857 55.4975698,29.9417 56.7985698,30.0017 C57.3695698,30.0337 58.2245698,29.8857 59.0585698,29.0507 C59.8835698,28.2257 60.0285698,27.3767 60.0045698,26.8087 L60.0045698,26.8087 Z" id="birdhouse">
</path>
        </g>
    </g>
</svg>